<svg width="95" height="18" viewBox="0 0 95 18" fill="none" xmlns="http://www.w3.org/2000/svg">
<path d="M23.975 16.925V18H18.4L16.65 14.025H7.9L6.15 18H0.575V16.925H3.475L10.7 0.524998H13.85L21.075 16.925H23.975ZM15.45 11.3L12.275 4.1L9.1 11.3H15.45ZM39.2047 16.925V18H21.5547V16.925H23.9797V0.524998H30.7797C31.963 0.524998 32.9797 0.666665 33.8297 0.949999C34.6964 1.23333 35.338 1.61667 35.7547 2.1C36.5547 3 36.9547 4.01667 36.9547 5.15C36.9547 6.51667 36.5214 7.53333 35.6547 8.2C35.338 8.43333 35.1214 8.58333 35.0047 8.65C34.888 8.7 34.6797 8.79167 34.3797 8.925C35.463 9.15833 36.3214 9.65 36.9547 10.4C37.6047 11.1333 37.9297 12.05 37.9297 13.15C37.9297 14.8 37.2797 16.0583 35.9797 16.925H39.2047ZM26.9297 15.275H31.5547C32.638 15.275 33.463 15.1083 34.0297 14.775C34.613 14.425 34.9047 13.775 34.9047 12.825C34.9047 11.275 33.663 10.5 31.1797 10.5H26.9297V15.275ZM26.9297 7.775H30.6797C32.813 7.775 33.8797 7.05 33.8797 5.6C33.8797 4.76667 33.6214 4.16667 33.1047 3.8C32.588 3.43333 31.788 3.25 30.7047 3.25H26.9297V7.775ZM60.2061 16.925V18H39.2061V16.925H44.9311C43.5644 16.1417 42.4811 15.0667 41.6811 13.7C40.8977 12.3333 40.5061 10.8083 40.5061 9.125C40.5061 6.55833 41.3894 4.41667 43.1561 2.7C44.9227 0.966666 47.1061 0.0999995 49.7061 0.0999995C52.3061 0.0999995 54.4894 0.966666 56.2561 2.7C58.0227 4.41667 58.9061 6.55833 58.9061 9.125C58.9061 10.7917 58.5061 12.3167 57.7061 13.7C56.9227 15.0833 55.8477 16.1583 54.4811 16.925H60.2061ZM54.0811 4.65C52.8977 3.41667 51.4394 2.8 49.7061 2.8C47.9727 2.8 46.5061 3.41667 45.3061 4.65C44.1227 5.88333 43.5311 7.38333 43.5311 9.15C43.5311 10.9 44.1227 12.3917 45.3061 13.625C46.5061 14.8583 47.9727 15.475 49.7061 15.475C51.4394 15.475 52.8977 14.8583 54.0811 13.625C55.2811 12.3917 55.8811 10.9 55.8811 9.15C55.8811 7.38333 55.2811 5.88333 54.0811 4.65ZM79.4021 16.925V18H60.2021V16.925H65.3771C63.3938 15.5417 62.4021 13.35 62.4021 10.35V0.524998H65.3521V10.225C65.3521 11.825 65.7521 13.0917 66.5521 14.025C67.3521 14.9583 68.4355 15.425 69.8021 15.425C71.1688 15.425 72.2521 14.9583 73.0521 14.025C73.8521 13.0917 74.2521 11.825 74.2521 10.225V0.524998H77.2021V10.35C77.2021 13.3667 76.2021 15.5583 74.2021 16.925H79.4021ZM94.4916 16.925V18H79.3916V16.925H85.4666V3.225H80.1666V0.524998H93.7166V3.225H88.4166V16.925H94.4916Z" fill="white"/>
</svg>
