<svg width="122" height="18" viewBox="0 0 122 18" fill="none" xmlns="http://www.w3.org/2000/svg">
<path d="M18.4 16.925V18H0V16.925H5.55C4.23333 16.1417 3.19167 15.075 2.425 13.725C1.675 12.375 1.3 10.85 1.3 9.15C1.3 6.58333 2.18333 4.43333 3.95 2.7C5.73333 0.966666 7.975 0.0999995 10.675 0.0999995C13.3917 0.0999995 15.6583 1.1 17.475 3.1L15.6 5.15C14.7667 4.35 13.975 3.79167 13.225 3.475C12.4917 3.15833 11.625 3 10.625 3C8.85833 3 7.375 3.575 6.175 4.725C4.975 5.85833 4.375 7.31667 4.375 9.1C4.375 10.8667 4.96667 12.35 6.15 13.55C7.35 14.7333 8.76667 15.325 10.4 15.325C11.4167 15.325 12.2917 15.1583 13.025 14.825C13.7583 14.475 14.525 13.925 15.325 13.175L17.225 15.125C16.4917 15.925 15.7917 16.525 15.125 16.925H18.4ZM39.3832 16.925V18H33.8082L32.0582 14.025H23.3082L21.5582 18H15.9832V16.925H18.8832L26.1082 0.524998H29.2582L36.4832 16.925H39.3832ZM30.8582 11.3L27.6832 4.1L24.5082 11.3H30.8582ZM50.6957 16.925V18H35.5957V16.925H41.6707V3.225H36.3707V0.524998H49.9207V3.225H44.6207V16.925H50.6957ZM70.2914 16.925V18H64.7164L62.9664 14.025H54.2164L52.4664 18H46.8914V16.925H49.7914L57.0164 0.524998H60.1664L67.3914 16.925H70.2914ZM61.7664 11.3L58.5914 4.1L55.4164 11.3H61.7664ZM83.6461 16.925V18H67.8711V16.925H70.2961V0.524998H73.2461V15.2H81.2211V16.925H83.6461ZM102.543 16.925V18H81.543V16.925H87.268C85.9013 16.1417 84.818 15.0667 84.018 13.7C83.2346 12.3333 82.843 10.8083 82.843 9.125C82.843 6.55833 83.7263 4.41667 85.493 2.7C87.2596 0.966666 89.443 0.0999995 92.043 0.0999995C94.643 0.0999995 96.8263 0.966666 98.593 2.7C100.36 4.41667 101.243 6.55833 101.243 9.125C101.243 10.7917 100.843 12.3167 100.043 13.7C99.2596 15.0833 98.1846 16.1583 96.818 16.925H102.543ZM96.418 4.65C95.2346 3.41667 93.7763 2.8 92.043 2.8C90.3096 2.8 88.843 3.41667 87.643 4.65C86.4596 5.88333 85.868 7.38333 85.868 9.15C85.868 10.9 86.4596 12.3917 87.643 13.625C88.843 14.8583 90.3096 15.475 92.043 15.475C93.7763 15.475 95.2346 14.8583 96.418 13.625C97.618 12.3917 98.218 10.9 98.218 9.15C98.218 7.38333 97.618 5.88333 96.418 4.65ZM121.464 16.925V18H102.539V16.925H108.589C107.139 16.1917 105.981 15.1167 105.114 13.7C104.264 12.2833 103.839 10.6833 103.839 8.9C103.839 6.35 104.722 4.25 106.489 2.6C108.256 0.933333 110.397 0.0999995 112.914 0.0999995C115.447 0.0999995 117.547 0.833333 119.214 2.3L117.639 4.55C116.956 3.96667 116.264 3.56667 115.564 3.35C114.881 3.11667 114.081 3 113.164 3C111.381 3 109.889 3.53333 108.689 4.6C107.506 5.66667 106.914 7.125 106.914 8.975C106.914 10.825 107.497 12.3167 108.664 13.45C109.831 14.5667 111.239 15.125 112.889 15.125C114.556 15.125 115.947 14.7667 117.064 14.05V9.25H120.014V15.225C119.397 15.9083 118.647 16.475 117.764 16.925H121.464Z" fill="white"/>
</svg>
