<svg width="126" height="18" viewBox="0 0 126 18" fill="none" xmlns="http://www.w3.org/2000/svg">
<path d="M18.4 16.925V18H0V16.925H5.55C4.23333 16.1417 3.19167 15.075 2.425 13.725C1.675 12.375 1.3 10.85 1.3 9.15C1.3 6.58333 2.18333 4.43333 3.95 2.7C5.73333 0.966666 7.975 0.0999995 10.675 0.0999995C13.3917 0.0999995 15.6583 1.1 17.475 3.1L15.6 5.15C14.7667 4.35 13.975 3.79167 13.225 3.475C12.4917 3.15833 11.625 3 10.625 3C8.85833 3 7.375 3.575 6.175 4.725C4.975 5.85833 4.375 7.31667 4.375 9.1C4.375 10.8667 4.96667 12.35 6.15 13.55C7.35 14.7333 8.76667 15.325 10.4 15.325C11.4167 15.325 12.2917 15.1583 13.025 14.825C13.7583 14.475 14.525 13.925 15.325 13.175L17.225 15.125C16.4917 15.925 15.7917 16.525 15.125 16.925H18.4ZM39.042 16.925V18H18.042V16.925H23.767C22.4003 16.1417 21.317 15.0667 20.517 13.7C19.7337 12.3333 19.342 10.8083 19.342 9.125C19.342 6.55833 20.2253 4.41667 21.992 2.7C23.7587 0.966666 25.942 0.0999995 28.542 0.0999995C31.142 0.0999995 33.3253 0.966666 35.092 2.7C36.8587 4.41667 37.742 6.55833 37.742 9.125C37.742 10.7917 37.342 12.3167 36.542 13.7C35.7587 15.0833 34.6837 16.1583 33.317 16.925H39.042ZM32.917 4.65C31.7337 3.41667 30.2753 2.8 28.542 2.8C26.8087 2.8 25.342 3.41667 24.142 4.65C22.9587 5.88333 22.367 7.38333 22.367 9.15C22.367 10.9 22.9587 12.3917 24.142 13.625C25.342 14.8583 26.8087 15.475 28.542 15.475C30.2753 15.475 31.7337 14.8583 32.917 13.625C34.117 12.3917 34.717 10.9 34.717 9.15C34.717 7.38333 34.117 5.88333 32.917 4.65ZM41.4631 16.925V0.524998H44.4131L54.5631 13.575V0.524998H57.5131V16.925H59.9381V18H54.3131L44.4131 5.25V18H39.0381V16.925H41.4631ZM75.0365 16.925V18H59.9365V16.925H66.0115V3.225H60.7115V0.524998H74.2615V3.225H68.9615V16.925H75.0365ZM94.6322 16.925V18H89.0572L87.3072 14.025H78.5572L76.8072 18H71.2322V16.925H74.1322L81.3572 0.524998H84.5072L91.7322 16.925H94.6322ZM86.1072 11.3L82.9322 4.1L79.7572 11.3H86.1072ZM110.612 16.925V18H92.2119V16.925H97.7619C96.4452 16.1417 95.4036 15.075 94.6369 13.725C93.8869 12.375 93.5119 10.85 93.5119 9.15C93.5119 6.58333 94.3952 4.43333 96.1619 2.7C97.9452 0.966666 100.187 0.0999995 102.887 0.0999995C105.604 0.0999995 107.87 1.1 109.687 3.1L107.812 5.15C106.979 4.35 106.187 3.79167 105.437 3.475C104.704 3.15833 103.837 3 102.837 3C101.07 3 99.5869 3.575 98.3869 4.725C97.1869 5.85833 96.5869 7.31667 96.5869 9.1C96.5869 10.8667 97.1786 12.35 98.3619 13.55C99.5619 14.7333 100.979 15.325 102.612 15.325C103.629 15.325 104.504 15.1583 105.237 14.825C105.97 14.475 106.737 13.925 107.537 13.175L109.437 15.125C108.704 15.925 108.004 16.525 107.337 16.925H110.612ZM125.72 16.925V18H110.62V16.925H116.695V3.225H111.395V0.524998H124.945V3.225H119.645V16.925H125.72Z" fill="white"/>
</svg>
