<svg width="83" height="18" viewBox="0 0 83 18" fill="none" xmlns="http://www.w3.org/2000/svg">
<path d="M19.425 16.925V18H14.05V10.85H5.375V18H2.425V0.524998H5.375V8.1H14.05V0.524998H17V16.925H19.425ZM2.425 16.925H0V18H2.425V16.925ZM40.4336 16.925V18H19.4336V16.925H25.1586C23.7919 16.1417 22.7086 15.0667 21.9086 13.7C21.1253 12.3333 20.7336 10.8083 20.7336 9.125C20.7336 6.55833 21.6169 4.41667 23.3836 2.7C25.1503 0.966666 27.3336 0.0999995 29.9336 0.0999995C32.5336 0.0999995 34.7169 0.966666 36.4836 2.7C38.2503 4.41667 39.1336 6.55833 39.1336 9.125C39.1336 10.7917 38.7336 12.3167 37.9336 13.7C37.1503 15.0833 36.0753 16.1583 34.7086 16.925H40.4336ZM34.3086 4.65C33.1253 3.41667 31.6669 2.8 29.9336 2.8C28.2003 2.8 26.7336 3.41667 25.5336 4.65C24.3503 5.88333 23.7586 7.38333 23.7586 9.15C23.7586 10.9 24.3503 12.3917 25.5336 13.625C26.7336 14.8583 28.2003 15.475 29.9336 15.475C31.6669 15.475 33.1253 14.8583 34.3086 13.625C35.5086 12.3917 36.1086 10.9 36.1086 9.15C36.1086 7.38333 35.5086 5.88333 34.3086 4.65ZM65.0047 16.925V18H59.6297V4.35L53.5297 16.475H51.8797L45.8047 4.35V18H40.4297V16.925H42.8547V0.524998H47.4547L52.7297 11.5L58.0047 0.524998H62.5797V16.925H65.0047ZM67.4396 16.925V0.524998H79.7146V3.3H70.3896V7.925H78.7646V10.55H70.3896V15.225H80.0146V16.925H82.4396V18H65.0146V16.925H67.4396Z" fill="white"/>
</svg>
