<svg width="193" height="70" viewBox="0 0 193 70" fill="none" xmlns="http://www.w3.org/2000/svg">
<path d="M55.1 65.7V70H0V65.7H11C8.06667 64.3667 5.43333 62.4667 3.1 60L9.8 50.7C14.3333 55.0333 18.7667 57.2 23.1 57.2C26.1667 57.2 28.7667 56.1667 30.9 54.1C33.1 52.0333 34.2 48.9333 34.2 44.8V10.7H12V0.0999939H46V44.2C46 54.6 42.5667 61.7667 35.7 65.7H55.1ZM80.2781 65.7V42.4L54.2781 0.0999939H67.1781L86.2781 31.9L105.378 0.0999939H118.278L92.2781 42.4V65.7H117.478V70H55.0781V65.7H80.2781ZM192.78 65.7V70H171.18L154.48 46.5H138.98V70H117.48V65.7H127.18V0.0999939H153.18C163.847 0.0999939 171.48 1.89999 176.08 5.5C180.68 9.1 182.98 14.8667 182.98 22.8C182.98 34.3333 177.947 41.6 167.88 44.6L183.08 65.7H192.78ZM153.68 35.8C160.347 35.8 164.88 34.7667 167.28 32.7C169.68 30.6333 170.88 27.3333 170.88 22.8C170.88 18.2 169.647 15.0667 167.18 13.4C164.714 11.6667 160.314 10.8 153.98 10.8H138.98V35.8H153.68Z" fill="white"/>
</svg>
